<svg id="Layer_1" data-name="Layer 1" xmlns="http://www.w3.org/2000/svg" viewBox="0 0 450 550"><defs><style>.cls-1{fill:#ccc;}</style></defs><title>Artboard 1</title><path class="cls-1" d="M0,0V550H450V0ZM348.75,348.65a24.92,24.92,0,0,1-24.8,24.8H125.35a24.92,24.92,0,0,1-24.8-24.8V237.25a24.92,24.92,0,0,1,24.8-24.8h29.8c4,0,8.6-3.2,9.8-7l7.8-22.8c1.2-3.8,5.8-7,9.8-7H267c4,0,8.6,3.2,9.8,7l7.6,23c1.2,3.8,5.8,7,9.8,7H324a24.75,24.75,0,0,1,24.8,24.6Z"/><path class="cls-1" d="M224.75,231.85a55,55,0,1,0,55,55A55,55,0,0,0,224.75,231.85Zm-.2,92.5a37.5,37.5,0,1,1,37.5-37.5A37.43,37.43,0,0,1,224.55,324.35Z"/><path class="cls-1" d="M315.15,254.65a8.6,8.6,0,1,1,8.6-8.6A8.41,8.41,0,0,1,315.15,254.65Z"/></svg>